<svg width="55" height="51" viewBox="0 0 55 51" fill="none" xmlns="http://www.w3.org/2000/svg">
<g clip-path="url(#clip0_77_1945)">
<path d="M31.2336 9C22.6427 9 15.1404 14.4556 10.9648 19.1233L2.62599 12.5441C1.46774 11.6297 -0.261512 12.6039 0.0344945 14.0044L2.34335 24.9375L0.0335397 35.8716C-0.262467 37.2721 1.46679 38.2453 2.62503 37.3319L10.9638 30.7527C15.1394 35.4194 22.6427 40.875 31.2336 40.875C44.3591 40.875 55.0001 28.125 55.0001 24.9375C55.0001 21.75 44.3591 9 31.2336 9ZM39.582 27.3281C38.3168 27.3281 37.2903 26.2573 37.2903 24.9375C37.2903 23.6167 38.3168 22.5469 39.582 22.5469C40.8481 22.5469 41.8736 23.6167 41.8736 24.9375C41.8736 26.2573 40.8472 27.3281 39.582 27.3281Z" fill="white"/>
</g>
<defs>
<clipPath id="clip0_77_1945">
<rect width="55" height="51" fill="white"/>
</clipPath>
</defs>
</svg>
