<svg width="1131" height="471" viewBox="0 0 1131 471" fill="none" xmlns="http://www.w3.org/2000/svg">
<path d="M948.375 446C945.797 446 943.591 445.301 941.756 443.904C939.922 442.506 939.003 440.824 939 438.857V403.143C939 401.179 939.919 399.498 941.756 398.1C943.594 396.702 945.8 396.002 948.375 396H953.062V388.857C953.062 383.917 955.348 379.706 959.92 376.225C964.492 372.744 970.019 371.002 976.5 371C982.984 371 988.512 372.742 993.084 376.225C997.656 379.708 999.941 383.919 999.937 388.857V396H1004.62C1007.2 396 1009.41 396.7 1011.25 398.1C1013.09 399.5 1014 401.181 1014 403.143V438.857C1014 440.821 1013.08 442.504 1011.25 443.904C1009.41 445.304 1007.21 446.002 1004.62 446H948.375ZM976.5 428.143C979.078 428.143 981.286 427.444 983.123 426.046C984.961 424.649 985.878 422.967 985.875 421C985.875 419.036 984.958 417.355 983.123 415.957C981.289 414.56 979.081 413.86 976.5 413.857C973.922 413.857 971.716 414.557 969.881 415.957C968.047 417.357 967.128 419.038 967.125 421C967.125 422.964 968.044 424.646 969.881 426.046C971.719 427.446 973.925 428.145 976.5 428.143ZM962.437 396H990.562V388.857C990.562 385.881 989.195 383.351 986.461 381.268C983.727 379.185 980.406 378.143 976.5 378.143C972.594 378.143 969.273 379.185 966.539 381.268C963.805 383.351 962.437 385.881 962.437 388.857V396Z" fill="white"/>
<path d="M976.5 25C969.083 25 961.833 27.1993 955.666 31.3199C949.499 35.4404 944.693 41.2971 941.855 48.1494C939.016 55.0016 938.274 62.5416 939.721 69.8159C941.168 77.0902 944.739 83.772 949.984 89.0165C955.228 94.261 961.91 97.8325 969.184 99.2794C976.458 100.726 983.998 99.9837 990.851 97.1455C997.703 94.3072 1003.56 89.5007 1007.68 83.3339C1011.8 77.167 1014 69.9168 1014 62.5C1013.99 52.5576 1010.04 43.0254 1003 35.9951C995.975 28.9648 986.442 25.0105 976.5 25ZM963.519 50.9615C964.375 50.9615 965.212 51.2153 965.923 51.6907C966.635 52.1662 967.189 52.842 967.517 53.6326C967.844 54.4233 967.93 55.2933 967.763 56.1326C967.596 56.9719 967.184 57.7429 966.579 58.348C965.974 58.9532 965.203 59.3653 964.363 59.5322C963.524 59.6992 962.654 59.6135 961.863 59.286C961.073 58.9585 960.397 58.4039 959.922 57.6924C959.446 56.9808 959.192 56.1442 959.192 55.2885C959.192 54.1409 959.648 53.0403 960.46 52.2289C961.271 51.4174 962.372 50.9615 963.519 50.9615ZM993.418 72.5961C989.708 79.0108 983.542 82.6923 976.5 82.6923C969.458 82.6923 963.292 79.0144 959.582 72.5961C959.373 72.2678 959.233 71.9007 959.17 71.5168C959.107 71.1329 959.122 70.7402 959.214 70.3623C959.307 69.9845 959.475 69.6292 959.708 69.318C959.942 69.0067 960.236 68.7459 960.573 68.5512C960.909 68.3565 961.282 68.232 961.668 68.1851C962.054 68.1381 962.446 68.1698 962.82 68.2782C963.193 68.3866 963.541 68.5695 963.842 68.8158C964.144 69.0621 964.392 69.3668 964.572 69.7115C967.266 74.3666 971.499 76.9231 976.5 76.9231C981.501 76.9231 985.734 74.363 988.428 69.7115C988.608 69.3668 988.856 69.0621 989.158 68.8158C989.459 68.5695 989.807 68.3866 990.18 68.2782C990.554 68.1698 990.946 68.1381 991.332 68.1851C991.718 68.232 992.091 68.3565 992.427 68.5512C992.764 68.7459 993.058 69.0067 993.292 69.318C993.525 69.6292 993.693 69.9845 993.786 70.3623C993.878 70.7402 993.893 71.1329 993.83 71.5168C993.767 71.9007 993.627 72.2678 993.418 72.5961ZM989.481 59.6154C988.625 59.6154 987.788 59.3616 987.077 58.8862C986.365 58.4107 985.811 57.7349 985.483 56.9443C985.156 56.1537 985.07 55.2837 985.237 54.4443C985.404 53.605 985.816 52.834 986.421 52.2289C987.026 51.6237 987.797 51.2116 988.637 51.0447C989.476 50.8777 990.346 50.9634 991.137 51.2909C991.927 51.6184 992.603 52.173 993.078 52.8845C993.554 53.5961 993.808 54.4327 993.808 55.2885C993.808 56.436 993.352 57.5366 992.54 58.348C991.729 59.1595 990.628 59.6154 989.481 59.6154Z" fill="white"/>
<path d="M504 381V373.5C504 372.837 504.263 372.201 504.732 371.732C505.201 371.263 505.837 371 506.5 371C507.163 371 507.799 371.263 508.268 371.732C508.737 372.201 509 372.837 509 373.5V381C509 381.663 508.737 382.299 508.268 382.768C507.799 383.237 507.163 383.5 506.5 383.5C505.837 383.5 505.201 383.237 504.732 382.768C504.263 382.299 504 381.663 504 381ZM506.5 388.5C502.544 388.5 498.678 389.673 495.389 391.871C492.1 394.068 489.536 397.192 488.022 400.846C486.509 404.501 486.113 408.522 486.884 412.402C487.656 416.281 489.561 419.845 492.358 422.642C495.155 425.439 498.719 427.344 502.598 428.116C506.478 428.887 510.499 428.491 514.154 426.978C517.808 425.464 520.932 422.9 523.129 419.611C525.327 416.322 526.5 412.456 526.5 408.5C526.494 403.197 524.385 398.114 520.636 394.364C516.886 390.615 511.803 388.506 506.5 388.5ZM484.731 390.269C485.2 390.738 485.837 391.001 486.5 391.001C487.163 391.001 487.8 390.738 488.269 390.269C488.738 389.8 489.001 389.163 489.001 388.5C489.001 387.837 488.738 387.2 488.269 386.731L483.269 381.731C482.8 381.262 482.163 380.999 481.5 380.999C480.837 380.999 480.2 381.262 479.731 381.731C479.262 382.2 478.999 382.837 478.999 383.5C478.999 384.163 479.262 384.8 479.731 385.269L484.731 390.269ZM484.731 426.731L479.731 431.731C479.262 432.2 478.999 432.837 478.999 433.5C478.999 434.163 479.262 434.8 479.731 435.269C480.2 435.738 480.837 436.001 481.5 436.001C482.163 436.001 482.8 435.738 483.269 435.269L488.269 430.269C488.501 430.036 488.685 429.761 488.811 429.457C488.937 429.154 489.001 428.828 489.001 428.5C489.001 428.172 488.937 427.846 488.811 427.543C488.685 427.239 488.501 426.964 488.269 426.731C488.036 426.499 487.761 426.315 487.457 426.189C487.154 426.063 486.828 425.999 486.5 425.999C486.172 425.999 485.846 426.063 485.543 426.189C485.239 426.315 484.964 426.499 484.731 426.731ZM526.5 391C526.828 391 527.154 390.936 527.457 390.81C527.761 390.685 528.036 390.501 528.269 390.269L533.269 385.269C533.738 384.8 534.001 384.163 534.001 383.5C534.001 382.837 533.738 382.2 533.269 381.731C532.8 381.262 532.163 380.999 531.5 380.999C530.837 380.999 530.2 381.262 529.731 381.731L524.731 386.731C524.381 387.081 524.143 387.527 524.046 388.012C523.95 388.497 523.999 389 524.188 389.457C524.378 389.914 524.699 390.305 525.11 390.579C525.522 390.854 526.005 391 526.5 391ZM528.269 426.731C527.8 426.262 527.163 425.999 526.5 425.999C525.837 425.999 525.2 426.262 524.731 426.731C524.262 427.2 523.999 427.837 523.999 428.5C523.999 429.163 524.262 429.8 524.731 430.269L529.731 435.269C529.964 435.501 530.239 435.685 530.543 435.811C530.846 435.937 531.172 436.001 531.5 436.001C531.828 436.001 532.154 435.937 532.457 435.811C532.761 435.685 533.036 435.501 533.269 435.269C533.501 435.036 533.685 434.761 533.811 434.457C533.937 434.154 534.001 433.828 534.001 433.5C534.001 433.172 533.937 432.846 533.811 432.543C533.685 432.239 533.501 431.964 533.269 431.731L528.269 426.731ZM481.5 408.5C481.5 407.837 481.237 407.201 480.768 406.732C480.299 406.263 479.663 406 479 406H471.5C470.837 406 470.201 406.263 469.732 406.732C469.263 407.201 469 407.837 469 408.5C469 409.163 469.263 409.799 469.732 410.268C470.201 410.737 470.837 411 471.5 411H479C479.663 411 480.299 410.737 480.768 410.268C481.237 409.799 481.5 409.163 481.5 408.5ZM506.5 433.5C505.837 433.5 505.201 433.763 504.732 434.232C504.263 434.701 504 435.337 504 436V443.5C504 444.163 504.263 444.799 504.732 445.268C505.201 445.737 505.837 446 506.5 446C507.163 446 507.799 445.737 508.268 445.268C508.737 444.799 509 444.163 509 443.5V436C509 435.337 508.737 434.701 508.268 434.232C507.799 433.763 507.163 433.5 506.5 433.5ZM541.5 406H534C533.337 406 532.701 406.263 532.232 406.732C531.763 407.201 531.5 407.837 531.5 408.5C531.5 409.163 531.763 409.799 532.232 410.268C532.701 410.737 533.337 411 534 411H541.5C542.163 411 542.799 410.737 543.268 410.268C543.737 409.799 544 409.163 544 408.5C544 407.837 543.737 407.201 543.268 406.732C542.799 406.263 542.163 406 541.5 406Z" fill="white"/>
<path d="M37.5 25C32.5754 25 27.6991 25.97 23.1494 27.8545C18.5997 29.7391 14.4657 32.5013 10.9835 35.9835C3.95088 43.0161 0 52.5544 0 62.5C0 72.4456 3.95088 81.9839 10.9835 89.0165C14.4657 92.4987 18.5997 95.2609 23.1494 97.1455C27.6991 99.03 32.5754 100 37.5 100C47.4456 100 56.9839 96.0491 64.0165 89.0165C71.0491 81.9839 75 72.4456 75 62.5C75 57.5754 74.03 52.6991 72.1455 48.1494C70.2609 43.5997 67.4987 39.4657 64.0165 35.9835C60.5343 32.5013 56.4003 29.7391 51.8506 27.8545C47.3009 25.97 42.4246 25 37.5 25ZM53.25 78.25L33.75 66.25V43.75H39.375V63.25L56.25 73.375L53.25 78.25Z" fill="white"/>
<path d="M37.5 418.368C33.0357 418.368 29.2411 417.217 26.1161 414.914C22.9911 412.612 21.4286 409.816 21.4286 406.526V382.842C21.4286 379.553 22.9911 376.757 26.1161 374.454C29.2411 372.151 33.0357 371 37.5 371C41.9643 371 45.7589 372.151 48.8839 374.454C52.0089 376.757 53.5714 379.553 53.5714 382.842V406.526C53.5714 409.816 52.0089 412.612 48.8839 414.914C45.7589 417.217 41.9643 418.368 37.5 418.368ZM32.1429 446V433.862C22.8571 432.941 15.1786 429.882 9.10714 424.684C3.03571 419.487 0 413.434 0 406.526H10.7143C10.7143 411.987 13.3268 416.642 18.5518 420.492C23.7768 424.342 30.0929 426.266 37.5 426.263C44.9107 426.263 51.2286 424.338 56.4536 420.488C61.6786 416.638 64.2893 411.984 64.2857 406.526H75C75 413.434 71.9643 419.487 65.8929 424.684C59.8214 429.882 52.1429 432.941 42.8571 433.862V446H32.1429Z" fill="white"/>
<path d="M485.667 100C481.056 100 477.126 98.3744 473.877 95.1233C470.628 91.8722 469.002 87.9422 469 83.3333H474C474 86.5556 475.139 89.3056 477.417 91.5833C479.694 93.8611 482.444 95 485.667 95V100ZM499.167 100C497.5 100 495.944 99.6256 494.5 98.8767C493.056 98.1278 491.861 97.0578 490.917 95.6667L469.667 64.5833L471.667 62.6667C472.722 61.6111 473.972 61 475.417 60.8333C476.861 60.6667 478.167 61 479.333 61.8333L489 68.5833V36.6667C489 35.7222 489.32 34.9311 489.96 34.2933C490.6 33.6556 491.391 33.3356 492.333 33.3333C493.278 33.3333 494.07 33.6533 494.71 34.2933C495.35 34.9333 495.669 35.7244 495.667 36.6667V63.3333H502.333V30C502.333 29.0556 502.653 28.2644 503.293 27.6267C503.933 26.9889 504.724 26.6689 505.667 26.6667C506.611 26.6667 507.403 26.9867 508.043 27.6267C508.683 28.2667 509.002 29.0578 509 30V63.3333H515.667V33.3333C515.667 32.3889 515.987 31.5978 516.627 30.96C517.267 30.3222 518.058 30.0022 519 30C519.944 30 520.737 30.32 521.377 30.96C522.017 31.6 522.336 32.3911 522.333 33.3333V63.3333H529V40C529 39.0556 529.32 38.2644 529.96 37.6267C530.6 36.9889 531.391 36.6689 532.333 36.6667C533.278 36.6667 534.07 36.9867 534.71 37.6267C535.35 38.2667 535.669 39.0578 535.667 40V86.6667C535.667 90.3333 534.361 93.4722 531.75 96.0833C529.139 98.6944 526 100 522.333 100H499.167ZM539 40.0833C539 37.25 538.028 34.8611 536.083 32.9167C534.139 30.9722 531.75 30 528.917 30V25C533.083 25 536.639 26.4722 539.583 29.4167C542.528 32.3611 544 35.9167 544 40.0833H539Z" fill="white"/>
</svg>
