<svg width="420" height="75" viewBox="0 0 420 75" fill="none" xmlns="http://www.w3.org/2000/svg">
<circle cx="37.5" cy="37.5" r="37" fill="white" stroke="black"/>
<circle cx="152.5" cy="37.5" r="37" fill="white" stroke="black"/>
<circle cx="267.5" cy="37.5" r="37" fill="white" stroke="black"/>
<circle cx="382.5" cy="37.5" r="37" fill="white" stroke="black"/>
<path d="M48.4855 15.2617H27.5146C20.748 15.2617 15.2637 20.747 15.2637 27.5137V48.4826C15.2637 55.2492 20.7489 60.7345 27.5156 60.7345H48.4845C55.2512 60.7345 60.7365 55.2492 60.7365 48.4826V27.5137C60.7365 20.747 55.2521 15.2617 48.4855 15.2617Z" fill="white"/>
<path d="M48.4855 15.2617H27.5146C20.748 15.2617 15.2637 20.747 15.2637 27.5137V48.4826C15.2637 55.2492 20.7489 60.7345 27.5156 60.7345H48.4845C55.2512 60.7345 60.7365 55.2492 60.7365 48.4826V27.5137C60.7365 20.747 55.2521 15.2617 48.4855 15.2617Z" stroke="black" stroke-width="2" stroke-miterlimit="10"/>
<path d="M37.9998 48.9762C44.0619 48.9762 48.9762 44.0619 48.9762 37.9998C48.9762 31.9377 44.0619 27.0234 37.9998 27.0234C31.9377 27.0234 27.0234 31.9377 27.0234 37.9998C27.0234 44.0619 31.9377 48.9762 37.9998 48.9762Z" stroke="black" stroke-width="2" stroke-miterlimit="10"/>
<path d="M51.3284 27.0239C52.6272 27.0239 53.6802 25.971 53.6802 24.6721C53.6802 23.3733 52.6272 22.3203 51.3284 22.3203C50.0295 22.3203 48.9766 23.3733 48.9766 24.6721C48.9766 25.971 50.0295 27.0239 51.3284 27.0239Z" fill="black"/>
<path d="M175 23.4379V51.5629C175 53.1589 173.784 54.3754 172.188 54.3754H169.375V28.8505L152.5 40.9724L135.625 28.8505V54.3754H132.812C131.216 54.3754 130 53.1589 130 51.5629V23.4379C130 22.6391 130.301 21.936 130.806 21.4382C131.069 21.1751 131.382 20.9676 131.727 20.8279C132.071 20.6883 132.441 20.6194 132.812 20.6254H133.75L152.5 34.2196L171.25 20.6254H172.188C172.986 20.6254 173.689 20.9263 174.194 21.4382C174.699 21.936 175 22.6391 175 23.4379Z" fill="black"/>
<path d="M277.307 61V54.5511C277.394 53.4797 277.245 52.4026 276.871 51.3914C276.497 50.3802 275.906 49.4582 275.138 48.6865C282.384 47.9001 290 45.2261 290 32.9576C289.999 29.8204 288.76 26.8035 286.538 24.5314C287.59 21.7867 287.516 18.7529 286.33 16.0602C286.33 16.0602 283.607 15.2738 277.307 19.3857C272.018 17.99 266.443 17.99 261.153 19.3857C254.853 15.2738 252.13 16.0602 252.13 16.0602C250.945 18.7529 250.871 21.7867 251.923 24.5314C249.684 26.8204 248.444 29.8645 248.461 33.025C248.461 45.2037 256.076 47.8776 263.323 48.7539C262.563 49.5178 261.978 50.4288 261.604 51.4276C261.23 52.4265 261.077 53.4907 261.153 54.5511V61" stroke="black" stroke-width="1.5" stroke-linecap="round" stroke-linejoin="round"/>
<path d="M261.154 56.5066C254.231 58.6929 248.462 56.5066 245 49.7656" stroke="black" stroke-width="1.5" stroke-linecap="round" stroke-linejoin="round"/>
<path d="M390.721 28.0323C389.135 28.0323 387.961 28.4322 387.042 28.9374C386.894 28.4135 386.41 28.0299 385.84 28.1445H378.861C378.171 28.0299 377.612 28.5889 377.825 29.3139V55.0405C377.612 55.6953 378.171 56.2567 378.861 56.2099H385.84C386.53 56.2567 387.088 55.6953 387.088 55.0054L387.086 39.4572C387.084 39.4502 387.058 38.7064 387.528 38.1943C387.905 37.7873 388.553 37.5792 389.448 37.5792C390.94 37.5792 391.605 38.1896 391.853 39.5554V55.0054C391.607 55.6953 392.166 56.2567 392.856 56.2099H400.211C400.901 56.2567 401.46 55.6953 401.212 55.0054V39.0362C401.458 30.916 395.674 28.0323 390.721 28.0323ZM398.96 53.8711H394.105V39.5554C394.105 36.7933 392.32 35.0813 389.451 35.0813C387.828 35.0813 386.565 35.5584 385.695 36.4986C384.485 37.8084 384.579 39.4689 384.839 39.8384V53.8711H380.11V30.5301H384.591V31.3159C384.589 31.55 384.653 31.7799 384.776 31.9791C384.899 32.1783 385.076 32.3388 385.286 32.4421C385.496 32.5454 385.731 32.5874 385.964 32.5632C386.196 32.539 386.418 32.4495 386.602 32.3052L386.929 32.0526C387.877 31.3065 388.857 30.5324 390.723 30.5324C392.655 30.5324 398.962 31.1475 398.962 39.0386L398.96 53.8711ZM370.806 16.3711C368.182 16.3711 366.049 18.5041 366.049 21.1282C366.049 23.7523 368.182 25.8853 370.806 25.8853C373.43 25.8853 375.563 23.7523 375.563 21.1282C375.563 18.5041 373.43 16.3711 370.806 16.3711ZM370.806 23.3874C369.562 23.3874 368.547 22.3724 368.547 21.1282C368.547 19.8839 369.562 18.8689 370.806 18.8689C372.05 18.8689 373.065 19.8839 373.065 21.1282C373.065 22.3724 372.05 23.3874 370.806 23.3874ZM374.146 28.0299H367.204C366.514 28.0299 365.955 28.5889 366.128 29.3139V55.0405C365.955 55.6953 366.514 56.2567 367.204 56.2099H374.146C374.836 56.2567 375.395 55.6953 375.395 55.0054V29.2788C375.395 28.9476 375.263 28.6299 375.029 28.3957C374.795 28.1615 374.477 28.0299 374.146 28.0299ZM373.145 53.8711H368.453V30.5301H373.145V53.8711Z" fill="black"/>
<path d="M382.5 0C361.821 0 345 16.8205 345 37.5C345 58.1795 361.821 75 382.5 75C403.179 75 420 58.1795 420 37.5C420 16.8205 403.179 0 382.5 0ZM382.5 72.5022C363.2 72.5022 347.498 56.7996 347.498 37.5C347.498 18.2004 363.2 2.49782 382.5 2.49782C401.8 2.49782 417.502 18.2004 417.502 37.5C417.502 56.7996 401.8 72.5022 382.5 72.5022Z" fill="black"/>
</svg>
